<svg width="540" height="540" viewBox="0 0 540 540" fill="none" xmlns="http://www.w3.org/2000/svg">
<path d="M412.727 165.177C409.976 160.762 409.528 156.795 410.168 152.38C410.424 151.74 410.68 151.036 410.936 150.396C413.943 142.654 416.438 134.336 415.863 125.954C415.223 116.484 408.76 109.381 407.672 100.039C406.777 92.1692 406.905 84.6189 403.833 77.1965C397.883 62.7998 384.254 53.1379 369.985 47.8911C362.179 45.0118 354.564 46.2915 348.038 51.4103C341.319 56.7211 337.48 68.4305 328.202 69.3903C328.138 69.3903 328.138 69.3903 328.074 69.3903C322.124 61.1361 315.917 53.4579 311.31 44.3079C308.495 38.6772 305.295 32.1506 297.041 32.7905C276.438 34.3901 256.538 41.5565 250.204 44.8838C249.884 44.4359 249.628 44.052 249.308 43.6041C241.95 33.6863 223.65 25.8161 212.772 35.2219C219.555 39.8289 223.458 45.3957 223.458 45.3957C216.739 38.9331 210.98 37.0135 210.98 37.0135C197.863 31.0629 178.796 33.1104 169.39 44.6918C159.216 57.233 156.657 76.6847 158.832 92.2332C161.008 107.718 160.176 122.498 159.344 137.919C158.96 145.853 159.024 153.851 159.536 161.722C160.112 170.616 160.688 179.446 161.264 188.34C161.456 191.283 161.52 194.226 161.392 197.17C161.2 203.184 160.304 209.199 158.64 215.022C155.761 224.684 152.37 233.194 152.945 243.495C153.585 255.973 156.657 268.898 156.849 281.759C156.849 283.23 156.849 284.702 156.849 286.174C156.785 295.132 155.185 303.962 152.498 312.536C151.026 317.271 150.13 323.477 152.498 329.812C154.353 334.611 155.569 339.602 155.889 344.785C156.145 348.304 156.465 351.759 156.785 355.214C157.232 359.757 157.744 364.236 158.32 368.779C158.448 370.059 158.512 371.595 159.024 372.81C159.472 373.066 160.112 373.258 160.944 373.258C161.711 373.258 162.671 373.066 163.695 372.426C163.055 358.286 164.335 346.96 164.591 344.849C164.591 344.785 164.591 344.721 164.591 344.721C164.591 344.593 164.591 344.529 164.591 344.529C164.911 342.417 165.935 341.073 167.086 344.273C167.406 345.105 167.598 345.936 167.854 346.768C169.774 353.935 169.39 361.613 172.141 368.587C172.845 370.315 173.741 371.915 174.893 373.514C175.532 374.026 193.32 383.624 214.756 374.602C215.012 370.699 216.035 363.852 215.012 360.013C214.116 356.75 211.3 355.15 208.677 353.423C201.383 348.56 193.64 344.081 187.946 337.298C184.426 333.203 181.995 328.276 180.139 323.221C172.141 301.85 178.412 280.927 182.315 259.3C184.682 246.247 186.922 233.194 188.202 220.013C189.545 206 192.617 191.795 197.671 178.678C204.582 160.634 210.852 143.294 213.348 124.034C215.012 129.857 217.443 135.679 219.555 141.246C222.242 148.157 225.057 154.939 228.001 161.658C233.311 173.623 241.118 184.373 246.812 196.21C253.083 209.263 252.955 222.38 256.218 236.137C258.458 245.607 264.025 253.157 269.399 261.027C276.118 270.881 281.685 281.375 286.164 292.316C290.451 302.874 291.666 314.455 289.555 325.653C286.292 338.77 291.218 348.304 291.474 348.752C295.506 358.542 293.778 377.225 293.778 377.225C298.321 379.337 300.049 376.778 300.049 376.778L299.985 348.24C301.904 349.84 303.312 351.951 304.08 354.318C305.871 359.501 307.727 364.684 309.646 369.803C310.798 372.874 311.566 375.562 313.23 377.545C313.741 378.121 314.445 378.505 315.213 378.633C325.067 380.617 347.91 384.136 363.33 378.249C363.33 377.545 363.266 376.841 363.138 376.138C362.754 373.834 361.987 371.531 361.283 369.931C361.667 369.547 361.923 369.035 361.795 368.331C361.667 367.628 360.131 350.863 360.387 343.441C360.515 339.218 361.219 334.995 361.731 330.708C364.034 326.421 364.674 322.326 364.354 317.399C363.906 311.064 363.138 304.73 362.179 298.459C361.283 292.636 360.579 286.238 358.531 280.671C358.915 274.72 359.363 268.834 359.491 262.883C359.555 258.532 359.491 253.861 358.979 249.19C359.363 245.031 358.211 240.36 359.043 236.393C359.363 234.729 359.555 233.066 359.619 231.402C360.387 232.874 361.027 234.409 360.707 236.649C360.323 239.336 359.427 241.384 360.387 244.071C361.923 248.102 364.802 249.958 363.778 254.757C363.202 257.444 362.115 260.068 362.499 262.883C362.69 264.035 363.138 264.803 363.522 265.89C364.482 268.642 364.866 270.241 364.418 273.185C363.97 276 363.778 278.24 364.866 280.991C366.146 284.382 368.065 287.326 367.809 291.101C367.809 291.421 368.193 291.421 368.257 291.165C369.601 287.581 367.745 284.19 367.106 280.735C366.466 277.024 366.722 273.185 367.745 269.537C368.065 268.45 368.641 267.49 368.833 266.402C369.025 264.867 368.705 263.395 368.065 261.987C366.658 258.66 366.21 257.06 367.809 253.669C368.449 252.325 369.281 250.982 369.409 249.51C369.537 248.23 369.281 247.015 368.577 245.863C368.193 245.223 367.297 244.647 366.978 244.007C366.786 243.559 366.658 243.111 366.53 242.663C366.594 241.704 366.658 240.744 366.722 239.784C366.978 239.016 367.425 238.248 367.873 237.417C369.217 235.049 369.921 232.618 370.049 230.122C371.584 232.49 373.248 234.857 373.824 237.609C374.016 238.376 374.08 239.208 374.08 240.104C373.312 244.327 371.584 248.422 373.12 252.773C374.144 255.717 376.255 258.148 376.383 261.411C376.575 265.378 374.272 267.81 372.992 271.265C371.073 276.448 374.72 279.455 375.872 284.19C377.599 291.229 371.904 296.795 371.968 303.642C371.968 304.154 372.672 304.218 372.8 303.77C374.08 298.907 377.343 293.916 378.367 288.797C380.798 284.382 379.839 280.927 378.879 276.064C377.855 271.137 381.758 267.938 383.166 263.779C383.742 265.506 384.766 267.042 385.533 268.706C387.389 272.801 385.341 274.848 383.742 278.24C382.078 281.887 381.438 286.942 384.126 290.205C384.446 290.589 383.486 287.901 383.486 287.453C383.486 283.678 384.126 282.91 385.789 279.263C386.557 277.6 387.709 276.192 388.413 274.528C388.669 273.953 388.797 273.377 388.925 272.865C389.053 272.865 389.181 272.801 389.309 272.673C391.804 269.729 394.043 265.762 393.724 261.795C393.532 259.62 392.636 257.7 392.764 255.525C392.892 253.029 393.979 250.726 394.811 248.422C396.155 244.583 396.795 241.192 395.515 237.225C395.131 236.009 394.683 234.793 394.171 233.642C393.788 232.17 393.212 230.762 392.764 229.29C391.548 225.707 391.036 222.188 391.42 218.413C391.804 214.702 392.892 211.183 393.596 207.535C394.939 200.625 396.731 192.243 391.804 186.356C390.332 184.565 389.181 182.901 389.628 180.661C390.14 178.102 391.484 175.798 392.764 173.559C392.252 175.543 392.188 177.654 392.764 179.766C393.724 183.285 396.475 185.716 398.075 188.852C399.674 191.987 398.394 194.93 397.371 198.065C395.963 202.353 397.243 206.32 396.539 210.543C395.899 214.318 393.724 218.349 395.707 222.124C397.819 226.155 400.378 227.947 398.522 232.874C397.499 235.625 396.475 238.248 397.563 241.192C398.139 242.791 399.098 244.263 400.122 245.671C400.634 246.375 401.146 247.079 401.594 247.846C402.042 248.486 402.426 249.254 402.682 250.022C402.873 250.854 402.809 251.749 402.682 252.581C402.426 253.989 402.042 255.333 401.274 256.548C398.458 260.771 401.466 257.38 401.978 256.868C402.81 255.973 403.705 254.373 404.153 253.221C404.857 251.43 405.113 251.366 405.241 249.51C405.369 247.59 404.473 244.903 403.961 243.047C403.449 241.064 403.001 238.952 403.513 236.841C404.665 232.298 408.376 229.866 407.672 224.748C407.352 222.444 406.137 220.333 405.753 217.965C405.049 213.806 405.113 209.071 408.376 206C410.68 203.824 413.687 201.969 414.775 198.897C416.374 194.418 413.303 192.115 412.343 188.084C411.192 183.349 415.927 180.086 416.63 175.607C417.27 171.575 414.711 168.376 412.727 165.177ZM269.463 56.2092C274.198 55.5694 280.853 53.5219 285.588 54.5456C290.323 55.5694 293.138 61.3281 295.697 64.9113C297.489 67.4707 299.153 70.2221 301.008 72.7815C300.56 72.8455 300.176 72.8455 299.729 72.9095C298.065 73.0375 296.465 73.2294 294.866 73.2294C289.619 73.2934 284.372 72.9095 279.253 71.5018C274.262 70.1581 270.103 67.9186 266.328 65.1033C274.518 77.8364 283.668 81.2916 286.739 82.1234C268.76 77.9004 258.33 58.3208 258.01 57.6809C261.849 57.361 265.688 56.7211 269.463 56.2092ZM341.383 340.946C340.871 344.529 339.848 348.112 339.208 351.759C338.312 350.735 337.48 349.648 336.776 348.496C336.584 348.24 336.456 347.984 336.264 347.728C336.328 347.6 336.392 347.472 336.456 347.344C337.224 345.616 337.864 343.825 338.824 342.161C339.656 340.882 340.615 339.794 341.639 338.706C341.575 339.474 341.447 340.242 341.383 340.946ZM347.718 320.982C344.071 327.125 338.632 331.987 336.2 338.834C335.113 340.37 334.089 342.033 333.193 343.697C331.977 341.009 330.762 338.386 329.29 336.019C327.562 333.203 325.515 330.324 323.211 327.7C315.277 318.551 309.774 307.545 306.639 295.772C301.904 277.856 296.849 259.94 292.114 242.024C289.043 230.634 285.972 219.181 282.964 207.791C281.301 201.713 279.701 195.698 278.101 189.619C277.462 187.316 276.566 184.756 275.798 182.197C274.07 176.758 271.959 171.447 269.399 166.265C268.76 164.921 268.12 163.705 267.544 162.553C264.089 155.835 259.674 149.052 254.043 143.934C237.662 129.025 233.375 109.061 233.375 109.061C239.582 125.506 250.012 136.831 255.067 141.694C256.41 142.974 257.882 144.126 259.354 145.213C265.624 149.884 269.271 161.146 271.895 167.032C272.535 168.568 274.07 171.767 275.03 173.111C279.381 179.19 285.588 185.652 293.138 186.74C296.977 187.316 298.513 182.389 306.639 173.687C308.111 172.087 309.454 170.168 310.798 168.312C314.381 177.462 315.789 187.7 317.709 197.618C322.955 225.387 330.57 252.197 340.295 278.623C343.111 286.302 345.414 294.172 347.91 301.914C349.957 308.697 351.493 314.583 347.718 320.982ZM356.1 360.845C355.524 360.397 354.82 359.949 354.116 359.565C353.413 359.181 352.773 358.861 352.069 358.606C352.645 356.494 353.157 354.382 353.669 352.335C353.924 351.247 354.18 350.223 354.372 349.136C354.82 353.231 355.588 357.39 356.74 361.421C356.548 361.229 356.292 361.037 356.1 360.845ZM383.934 256.484C383.678 257.124 383.486 257.764 383.358 258.404C382.654 256.42 381.31 254.565 381.31 252.517C381.31 250.278 382.718 248.358 383.55 246.375C383.614 246.567 383.742 246.759 383.806 246.951C385.469 250.726 385.213 252.709 383.934 256.484ZM390.716 250.982C390.396 251.941 390.14 252.965 390.012 253.925C389.948 253.989 389.948 254.117 389.884 254.181C389.82 254.373 389.82 254.501 389.884 254.693C389.82 255.397 389.82 256.1 389.948 256.804C390.268 259.108 391.356 260.771 391.292 263.139C391.228 265.954 390.076 268.002 388.925 270.369C388.541 267.81 387.005 265.634 386.493 262.691C385.789 258.212 389.756 254.565 388.925 249.894C388.541 247.654 387.261 245.799 386.365 243.815C385.341 241.512 384.958 239.272 384.83 236.905C386.173 238.76 387.325 240.872 388.285 242.408C390.076 245.159 390.332 247.974 390.716 250.982ZM412.279 197.81C411.192 201.073 408.248 203.12 405.753 205.552C405.945 203.888 406.265 202.289 406.841 200.689C407.992 197.362 409.976 194.482 411.192 191.219C412.151 193.331 413.047 195.442 412.279 197.81ZM412.023 179.638C411.959 179.446 411.959 179.19 411.895 178.998C411.064 174.903 408.952 171.255 407.928 167.224C407.289 164.665 407.353 162.17 407.864 159.674C408.888 163.321 411.192 165.881 413.047 169.336C415.351 173.815 413.751 176.502 412.023 179.638Z" fill="white"/>
<path d="M74.4238 401.906V406.078H68.8613V477H63.2988V406.078H57.7363V401.906H74.4238ZM105.963 470.047C105.963 470.395 105.92 471.032 105.833 471.959C105.746 472.857 105.442 473.784 104.92 474.74C104.399 475.696 103.573 476.536 102.443 477.261C101.313 478.014 99.7053 478.391 97.6194 478.391C95.5334 478.391 93.9255 478.014 92.7956 477.261C91.6658 476.536 90.8401 475.696 90.3186 474.74C89.7971 473.784 89.4929 472.857 89.406 471.959C89.3191 471.032 89.2756 470.395 89.2756 470.047V408.859C89.2756 408.628 89.2901 408.28 89.3191 407.816C89.3481 407.353 89.435 406.846 89.5798 406.295C89.7247 405.716 89.9709 405.137 90.3186 404.557C90.6663 403.949 91.1443 403.398 91.7527 402.906C92.3611 402.413 93.1433 402.022 94.0994 401.732C95.0554 401.414 96.2288 401.254 97.6194 401.254C99.01 401.254 100.183 401.414 101.139 401.732C102.095 402.022 102.878 402.413 103.486 402.906C104.094 403.398 104.573 403.949 104.92 404.557C105.268 405.137 105.514 405.716 105.659 406.295C105.804 406.846 105.891 407.353 105.92 407.816C105.949 408.28 105.963 408.628 105.963 408.859V470.047ZM94.8381 470.047C94.8381 470.395 94.8526 470.815 94.8816 471.307C94.9106 471.771 95.012 472.22 95.1858 472.654C95.3596 473.089 95.6348 473.465 96.0115 473.784C96.3881 474.074 96.9241 474.219 97.6194 474.219C98.3147 474.219 98.8507 474.074 99.2273 473.784C99.6039 473.465 99.8791 473.089 100.053 472.654C100.227 472.22 100.328 471.771 100.357 471.307C100.386 470.815 100.401 470.395 100.401 470.047V408.859C100.401 408.512 100.386 408.135 100.357 407.729C100.328 407.324 100.227 406.962 100.053 406.643C99.8791 406.295 99.6039 406.006 99.2273 405.774C98.8507 405.542 98.3147 405.426 97.6194 405.426C96.9241 405.426 96.3881 405.542 96.0115 405.774C95.6348 406.006 95.3596 406.295 95.1858 406.643C95.012 406.962 94.9106 407.324 94.8816 407.729C94.8526 408.135 94.8381 408.512 94.8381 408.859V470.047ZM138.893 433.891C138.893 435.629 138.574 436.976 137.937 437.932C137.3 438.859 136.46 439.54 135.417 439.975C134.374 440.409 133.186 440.67 131.853 440.757C130.52 440.815 129.159 440.844 127.768 440.844V477H122.206V401.906H127.768C130.549 401.906 132.693 402.138 134.2 402.602C135.706 403.065 136.807 403.645 137.503 404.34C138.198 405.035 138.603 405.788 138.719 406.6C138.835 407.411 138.893 408.164 138.893 408.859V433.891ZM133.331 408.859C133.331 408.164 133.229 407.628 133.026 407.251C132.853 406.875 132.548 406.6 132.114 406.426C131.679 406.252 131.1 406.151 130.376 406.122C129.68 406.093 128.811 406.078 127.768 406.078V436.672C128.463 436.672 129.144 436.657 129.811 436.628C130.477 436.599 131.071 436.498 131.592 436.324C132.114 436.15 132.534 435.875 132.853 435.499C133.171 435.122 133.331 434.586 133.331 433.891V408.859ZM170.433 432.5H164.87V408.859C164.87 408.164 164.783 407.599 164.609 407.165C164.464 406.701 164.262 406.353 164.001 406.122C163.74 405.861 163.436 405.687 163.088 405.6C162.77 405.484 162.436 405.426 162.089 405.426C161.741 405.426 161.393 405.484 161.046 405.6C160.727 405.687 160.437 405.861 160.177 406.122C159.916 406.353 159.699 406.701 159.525 407.165C159.38 407.599 159.308 408.164 159.308 408.859V470.047C159.308 470.395 159.322 470.815 159.351 471.307C159.38 471.771 159.481 472.22 159.655 472.654C159.829 473.089 160.104 473.465 160.481 473.784C160.857 474.074 161.393 474.219 162.089 474.219C162.784 474.219 163.32 474.074 163.697 473.784C164.073 473.465 164.349 473.089 164.522 472.654C164.696 472.22 164.798 471.771 164.827 471.307C164.856 470.815 164.87 470.395 164.87 470.047V440.844H170.433V470.047C170.433 470.395 170.389 471.032 170.302 471.959C170.215 472.857 169.911 473.784 169.39 474.74C168.868 475.696 168.042 476.536 166.912 477.261C165.783 478.014 164.175 478.391 162.089 478.391C160.003 478.391 158.395 478.014 157.265 477.261C156.135 476.536 155.309 475.696 154.788 474.74C154.266 473.784 153.962 472.857 153.875 471.959C153.788 471.032 153.745 470.395 153.745 470.047V408.859C153.745 407.527 153.991 406.382 154.484 405.426C154.976 404.441 155.614 403.645 156.396 403.036C157.207 402.428 158.105 401.979 159.09 401.689C160.075 401.399 161.075 401.254 162.089 401.254C163.161 401.254 164.189 401.414 165.174 401.732C166.188 402.051 167.086 402.529 167.869 403.167C168.651 403.804 169.274 404.601 169.737 405.557C170.201 406.513 170.433 407.614 170.433 408.859V432.5ZM192.238 401.906V472.828H197.8V477H186.675V401.906H192.238ZM229.339 477H223.777L223.082 458.922H218.953L218.214 477H212.652L216.824 401.906H225.167L229.339 477ZM222.386 438.062L220.996 404.688L219.605 438.062L218.953 454.75H223.082L222.386 438.062ZM253.926 458.705C253.926 455.634 253.766 452.997 253.448 450.795C253.129 448.594 252.709 446.681 252.187 445.059C251.666 443.408 251.072 441.974 250.406 440.757C249.739 439.54 249.058 438.396 248.363 437.324C247.668 436.252 246.987 435.18 246.321 434.108C245.654 433.036 245.06 431.819 244.539 430.458C244.017 429.096 243.597 427.531 243.279 425.764C242.96 423.968 242.801 421.824 242.801 419.333V408.859C242.801 408.164 242.902 407.382 243.105 406.513C243.337 405.615 243.757 404.789 244.365 404.036C244.973 403.253 245.814 402.602 246.886 402.08C247.987 401.53 249.406 401.254 251.144 401.254C252.883 401.254 254.288 401.53 255.36 402.08C256.461 402.602 257.315 403.253 257.924 404.036C258.532 404.789 258.938 405.615 259.14 406.513C259.372 407.382 259.488 408.164 259.488 408.859V428.328H253.926V408.859C253.926 408.164 253.839 407.599 253.665 407.165C253.52 406.701 253.317 406.353 253.056 406.122C252.796 405.861 252.492 405.687 252.144 405.6C251.825 405.484 251.492 405.426 251.144 405.426C250.797 405.426 250.449 405.484 250.101 405.6C249.783 405.687 249.493 405.861 249.232 406.122C248.972 406.353 248.754 406.701 248.58 407.165C248.436 407.599 248.363 408.164 248.363 408.859V417.333C248.363 420.607 248.638 423.345 249.189 425.547C249.739 427.749 250.42 429.675 251.231 431.327C252.071 432.949 252.97 434.427 253.926 435.759C254.882 437.092 255.765 438.541 256.577 440.105C257.417 441.64 258.112 443.437 258.662 445.494C259.213 447.522 259.488 450.057 259.488 453.099V470.047C259.488 470.395 259.445 471.032 259.358 471.959C259.271 472.857 258.967 473.784 258.445 474.74C257.924 475.696 257.098 476.536 255.968 477.261C254.838 478.014 253.23 478.391 251.144 478.391C249.058 478.391 247.451 478.014 246.321 477.261C245.191 476.536 244.365 475.696 243.844 474.74C243.322 473.784 243.018 472.857 242.931 471.959C242.844 471.032 242.801 470.395 242.801 470.047V445.016H248.363V470.047C248.363 470.395 248.378 470.815 248.407 471.307C248.436 471.771 248.537 472.22 248.711 472.654C248.885 473.089 249.16 473.465 249.536 473.784C249.913 474.074 250.449 474.219 251.144 474.219C251.84 474.219 252.376 474.074 252.752 473.784C253.129 473.465 253.404 473.089 253.578 472.654C253.752 472.22 253.853 471.771 253.882 471.307C253.911 470.815 253.926 470.395 253.926 470.047V458.705ZM284.074 458.705C284.074 455.634 283.915 452.997 283.596 450.795C283.278 448.594 282.858 446.681 282.336 445.059C281.815 443.408 281.221 441.974 280.554 440.757C279.888 439.54 279.207 438.396 278.512 437.324C277.817 436.252 277.136 435.18 276.469 434.108C275.803 433.036 275.209 431.819 274.688 430.458C274.166 429.096 273.746 427.531 273.427 425.764C273.109 423.968 272.949 421.824 272.949 419.333V408.859C272.949 408.164 273.051 407.382 273.254 406.513C273.485 405.615 273.905 404.789 274.514 404.036C275.122 403.253 275.962 402.602 277.034 402.08C278.135 401.53 279.555 401.254 281.293 401.254C283.031 401.254 284.437 401.53 285.508 402.08C286.609 402.602 287.464 403.253 288.072 404.036C288.681 404.789 289.086 405.615 289.289 406.513C289.521 407.382 289.637 408.164 289.637 408.859V428.328H284.074V408.859C284.074 408.164 283.987 407.599 283.814 407.165C283.669 406.701 283.466 406.353 283.205 406.122C282.945 405.861 282.64 405.687 282.293 405.6C281.974 405.484 281.641 405.426 281.293 405.426C280.945 405.426 280.598 405.484 280.25 405.6C279.931 405.687 279.642 405.861 279.381 406.122C279.12 406.353 278.903 406.701 278.729 407.165C278.584 407.599 278.512 408.164 278.512 408.859V417.333C278.512 420.607 278.787 423.345 279.338 425.547C279.888 427.749 280.569 429.675 281.38 431.327C282.22 432.949 283.118 434.427 284.074 435.759C285.03 437.092 285.914 438.541 286.725 440.105C287.565 441.64 288.261 443.437 288.811 445.494C289.362 447.522 289.637 450.057 289.637 453.099V470.047C289.637 470.395 289.593 471.032 289.507 471.959C289.42 472.857 289.115 473.784 288.594 474.74C288.072 475.696 287.247 476.536 286.117 477.261C284.987 478.014 283.379 478.391 281.293 478.391C279.207 478.391 277.599 478.014 276.469 477.261C275.34 476.536 274.514 475.696 273.992 474.74C273.471 473.784 273.167 472.857 273.08 471.959C272.993 471.032 272.949 470.395 272.949 470.047V445.016H278.512V470.047C278.512 470.395 278.526 470.815 278.555 471.307C278.584 471.771 278.686 472.22 278.86 472.654C279.033 473.089 279.309 473.465 279.685 473.784C280.062 474.074 280.598 474.219 281.293 474.219C281.988 474.219 282.524 474.074 282.901 473.784C283.278 473.465 283.553 473.089 283.727 472.654C283.901 472.22 284.002 471.771 284.031 471.307C284.06 470.815 284.074 470.395 284.074 470.047V458.705ZM323.958 446.406H303.098V440.844H323.958V446.406ZM354.106 401.906V406.078H348.544V477H342.981V406.078H337.419V401.906H354.106ZM385.646 432.5C385.646 434.586 385.298 436.035 384.603 436.846C383.907 437.657 382.864 438.062 381.474 438.062C382.169 438.062 382.777 438.222 383.299 438.541C383.82 438.859 384.255 439.279 384.603 439.801C384.95 440.322 385.211 440.916 385.385 441.583C385.559 442.249 385.646 442.93 385.646 443.625V477H380.083V442.234C380.083 441.539 379.924 441.003 379.605 440.626C379.286 440.25 378.866 439.975 378.345 439.801C377.823 439.627 377.229 439.526 376.563 439.497C375.897 439.468 375.216 439.453 374.521 439.453V477H368.958V401.906H374.521C375.911 401.906 377.273 401.95 378.606 402.037C379.938 402.095 381.126 402.341 382.169 402.775C383.212 403.21 384.052 403.905 384.69 404.861C385.327 405.788 385.646 407.121 385.646 408.859V432.5ZM380.083 408.859C380.083 408.164 379.982 407.628 379.779 407.251C379.605 406.875 379.301 406.6 378.866 406.426C378.432 406.252 377.852 406.151 377.128 406.122C376.433 406.093 375.564 406.078 374.521 406.078V436.672C375.216 436.672 375.897 436.657 376.563 436.628C377.229 436.599 377.823 436.498 378.345 436.324C378.866 436.15 379.286 435.875 379.605 435.499C379.924 435.122 380.083 434.586 380.083 433.891V408.859ZM417.185 477H411.622L410.927 458.922H406.799L406.06 477H400.497L404.669 401.906H413.013L417.185 477ZM410.232 438.062L408.841 404.688L407.451 438.062L406.799 454.75H410.927L410.232 438.062ZM448.724 477H443.162L436.209 421.375V477H432.037V401.906H437.599L444.552 457.531V401.906H448.724V477ZM474.701 458.705C474.701 455.634 474.542 452.997 474.223 450.795C473.905 448.594 473.484 446.681 472.963 445.059C472.441 443.408 471.848 441.974 471.181 440.757C470.515 439.54 469.834 438.396 469.139 437.324C468.443 436.252 467.763 435.18 467.096 434.108C466.43 433.036 465.836 431.819 465.315 430.458C464.793 429.096 464.373 427.531 464.054 425.764C463.736 423.968 463.576 421.824 463.576 419.333V408.859C463.576 408.164 463.678 407.382 463.88 406.513C464.112 405.615 464.532 404.789 465.141 404.036C465.749 403.253 466.589 402.602 467.661 402.08C468.762 401.53 470.182 401.254 471.92 401.254C473.658 401.254 475.063 401.53 476.135 402.08C477.236 402.602 478.091 403.253 478.699 404.036C479.308 404.789 479.713 405.615 479.916 406.513C480.148 407.382 480.264 408.164 480.264 408.859V428.328H474.701V408.859C474.701 408.164 474.614 407.599 474.44 407.165C474.296 406.701 474.093 406.353 473.832 406.122C473.571 405.861 473.267 405.687 472.919 405.6C472.601 405.484 472.268 405.426 471.92 405.426C471.572 405.426 471.225 405.484 470.877 405.6C470.558 405.687 470.269 405.861 470.008 406.122C469.747 406.353 469.53 406.701 469.356 407.165C469.211 407.599 469.139 408.164 469.139 408.859V417.333C469.139 420.607 469.414 423.345 469.964 425.547C470.515 427.749 471.196 429.675 472.007 431.327C472.847 432.949 473.745 434.427 474.701 435.759C475.657 437.092 476.541 438.541 477.352 440.105C478.192 441.64 478.888 443.437 479.438 445.494C479.989 447.522 480.264 450.057 480.264 453.099V470.047C480.264 470.395 480.22 471.032 480.133 471.959C480.046 472.857 479.742 473.784 479.221 474.74C478.699 475.696 477.874 476.536 476.744 477.261C475.614 478.014 474.006 478.391 471.92 478.391C469.834 478.391 468.226 478.014 467.096 477.261C465.966 476.536 465.141 475.696 464.619 474.74C464.098 473.784 463.794 472.857 463.707 471.959C463.62 471.032 463.576 470.395 463.576 470.047V445.016H469.139V470.047C469.139 470.395 469.153 470.815 469.182 471.307C469.211 471.771 469.313 472.22 469.486 472.654C469.66 473.089 469.935 473.465 470.312 473.784C470.689 474.074 471.225 474.219 471.92 474.219C472.615 474.219 473.151 474.074 473.528 473.784C473.905 473.465 474.18 473.089 474.354 472.654C474.527 472.22 474.629 471.771 474.658 471.307C474.687 470.815 474.701 470.395 474.701 470.047V458.705Z" fill="white"/>
</svg>
